<?xml version="1.0" encoding="iso-8859-1"?>
<!-- Uploaded to: SVG Repo, www.svgrepo.com, Generator: SVG Repo Mixer Tools -->
<svg height="800px" width="800px" version="1.1" id="Layer_1" xmlns="http://www.w3.org/2000/svg" xmlns:xlink="http://www.w3.org/1999/xlink" 
	 viewBox="0 0 512.011 512.011" xml:space="preserve">
<path style="fill:#455A64;" d="M435.385,199.442C429.944,81.015,334.078-7.797,230.344,0.542
	C126.609,8.89,46.172,111.88,59.722,229.652c4.847,42.173,25.167,167.831,25.167,167.831l352.481-28.348
	C437.361,369.143,437.335,241.845,435.385,199.442z"/>
<path style="fill:#263238;" d="M453.782,503.14H63.869V379.077c0-9.783,7.931-17.723,17.723-17.723h354.466
	c9.792,0,17.723,7.94,17.723,17.723V503.14z"/>
<path style="fill:#9CCC65;" d="M176.509,267.65c-1.374-43.98-12.965-85.896-32.629-123.204c-2.907-5.512-4.174-11.813-3.057-17.945
	c3.757-20.639,9.668-40.409,17.511-59.081c1.923-4.581,5.884-8.135,10.705-9.322c8.773-2.153,17.112-5.547,24.804-9.987
	c11.883-6.868,24.724,7.249,17.271,18.778c-5.477,8.463-12.92,15.729-21.995,21.046c-1.701,14.329-2.402,28.685-2.1,42.979
	c6.877,11.582,12.947,23.669,18.113,36.191c1.232,0.31,2.49,0.514,3.748,0.718c-3.19-17.395-4.936-34.959-5.113-52.505
	c-0.035-3.252,0.567-6.504,1.755-9.535c6.894-17.582,15.455-34.596,25.628-50.813c5.202-8.286,14.87-12.637,24.502-10.909
	c8.862,1.595,17.812,2.667,26.798,3.208c12.894,0.78,16.651,18.282,5.308,24.449c-8.676,4.723-18.255,7.887-28.348,9.19
	c-3.491,10.43-7.727,20.612-12.708,30.458c0.425,16.819,2.623,33.71,6.93,50.37c4.59,1.462,9.225,2.774,13.904,3.935
	c2.986-12.628,7.036-24.786,12.22-36.288c7.577-10.847,14.25-22.42,19.894-34.614c4.449-9.597,15.207-14.613,25.273-11.361
	c7.532,2.428,15.162,4.652,22.899,6.664c10.315,2.685,12.619,16.687,3.447,22.11c-6.185,3.66-13.106,6.159-20.453,7.24
	c-4.59,12.752-9.881,25.141-15.818,37.113c-1.028,10.2-2.534,20.32-4.44,30.369c2.339,2.747,4.688,5.494,6.956,8.321
	c12.371-9.898,25.468-19.389,40.374-24.963c10.785-4.032,26.08-0.815,32.354,5.335c6.274,6.15,12.938,11.83,19.948,17.032
	c3.855,2.862,5.601,7.922,3.713,12.335c-0.93,2.18-2.224,4.245-3.89,6.115c-3.261,3.66-7.444,5.671-13.736,4.892
	c-8.286-1.028-22.154-12.991-27.799-18.22c-3.013,9.19-8.888,16.935-16.465,22.331c-3.642,11.857-6.363,24.166-7.94,36.9
	c8.286,27.631,10.829,60.995,6.868,91.213c-2.676,20.479-11.113,38.77-23.528,53.418c-3.554,29.483-8.773,58.771-15.721,87.686
	l-42.811-5.299L176.509,267.65z"/>
<path style="fill:#AED581;" d="M154.772,239.834c5.663,8.357,9.925,17.52,12.654,27.179c30.59,6.115,82.023,11.954,112.587,46.86
	c12.185,13.913,12.114,44.211,11.733,62.165c3.793,35.163,5.228,70.53,4.094,105.844h-94.288c4.599-20.71,7.462-41.712,8.941-62.785
	c-19.903-36.147-45.141-69.555-75.218-98.958c-6.691-6.531-10.776-15.189-11.405-24.511c-1.099-16.208-5.547-32.026-13.044-46.417
	c-2.224-4.271-4.502-22.553-3.429-27.241c3.704-16.226,3.979-33.151,0.638-49.599c-1.941-9.553,6.017-18.592,15.552-16.571
	c9.411,1.994,17.688,7.94,21.41,17.395c3.873,9.828,10.501,30.085,11.848,40.56C158.759,228.801,157.705,238.549,154.772,239.834z"
	/>
<path style="fill:#6D4C41;" d="M435.739,494.925c-16.598-7.01-33.701-13.053-51.212-18.122c-0.044-0.053-0.08-0.097-0.124-0.151
	c-3.766-46.586,7.249-90.38,28.845-127.227c5.663-9.659-5.928-20.24-15.215-13.984c-39.771,26.789-70.034,66.471-85.045,113.022
	c-5.406-14.799-16.731-25.078-29.952-25.078c-15.871,0-29.137,14.71-32.522,34.41c-3.332,0.798-3.828,0.922-7.16,1.719
	c-20.674-26.656-47.304-48.473-78.098-63.095c-9.641-4.581-19.106,6.256-13.505,15.34c10.297,16.704,17.776,35.296,21.871,55.137
	c-31.982,6.115-62.776,15.596-91.984,28.065c-8.853,3.775-6.079,17.05,3.545,17.05h347.067
	C441.907,512.002,444.636,498.683,435.739,494.925z"/>
</svg>